<?xml version="1.0" encoding="iso-8859-1"?>
<!-- Generator: Adobe Illustrator 19.0.0, SVG Export Plug-In . SVG Version: 6.00 Build 0)  -->
<svg version="1.1" id="Capa_1" xmlns="http://www.w3.org/2000/svg" xmlns:xlink="http://www.w3.org/1999/xlink" x="0px" y="0px"
	 viewBox="0 0 512.001 512.001" style="enable-background:new 0 0 512.001 512.001;" xml:space="preserve">
<g>
	<g>
		<path d="M212.121,84.255c-6.214,0-11.269,5.055-11.269,11.269c0,6.214,5.055,11.269,11.269,11.269
			c6.214,0,11.269-5.055,11.269-11.269C223.39,89.31,218.335,84.255,212.121,84.255z"/>
	</g>
</g>
<g>
	<g>
		<path d="M212.121,0c-53.394,0-96.833,43.438-96.833,96.832c0,20.66,12.838,54.909,39.249,104.707
			c19.539,36.84,40.195,70.037,44.144,76.328c2.925,4.651,7.948,7.427,13.44,7.427c0.003,0,0.007,0,0.011,0
			c5.494-0.003,10.519-2.786,13.435-7.437c3.941-6.277,24.587-39.455,44.138-76.319c26.411-49.797,39.249-84.046,39.249-104.707
			C308.953,43.438,265.515,0,212.121,0z M212.121,136.815c-22.768,0-41.292-18.523-41.292-41.292
			c0-22.768,18.523-41.292,41.292-41.292c22.769,0,41.292,18.523,41.292,41.292C253.413,118.292,234.889,136.815,212.121,136.815z"
			/>
	</g>
</g>
<g>
	<g>
		<path d="M266.128,370.398h-19.861c-2.648,0-4.795,2.147-4.795,4.795v37.407c0,2.648,2.147,4.795,4.795,4.795h19.861
			c2.648,0,4.795-2.147,4.795-4.795v-37.407C270.922,372.545,268.776,370.398,266.128,370.398z"/>
	</g>
</g>
<g>
	<g>
		<path d="M407.03,332.482L297.381,199.665c-1.408-1.705-4.084-1.484-5.193,0.428l-51.961,89.61
			c-11.537,19.895-39.466,21.976-53.824,4.01c-8.086-10.118-15.809-19.781-20.194-25.267c-1.923-2.407-5.564-2.442-7.542-0.08
			L105.038,332.4c-5.322,6.356-4.485,15.824,1.87,21.147c2.811,2.355,6.23,3.503,9.63,3.503c4.288,0,8.548-1.828,11.517-5.373
			l7.753-9.257v148.255c0,11.778,9.548,21.326,21.326,21.326h197.984c11.778,0,21.326-9.548,21.326-21.326V342.592l7.434,9.004
			c2.969,3.596,7.26,5.454,11.585,5.454c3.365,0,6.75-1.126,9.548-3.436C411.404,348.336,412.309,338.875,407.03,332.482z
			 M300.945,421.872c0,14.086-11.46,25.546-25.546,25.546h-38.405c-14.086,0-25.546-11.46-25.546-25.546v-55.949
			c0-14.087,11.46-25.547,25.546-25.547H275.4c14.086,0,25.546,11.46,25.546,25.547V421.872z"/>
	</g>
</g>
<g>
	<g>
		<path d="M340.508,179.522h-25.474c-0.031,0-0.062,0-0.093,0c-4.06,0.018-6.209,4.85-3.624,7.981l41.58,50.366
			c2.91,3.526,8.637,1.467,8.637-3.104v-34.216C361.534,188.936,352.121,179.522,340.508,179.522z"/>
	</g>
</g>
<g>
</g>
<g>
</g>
<g>
</g>
<g>
</g>
<g>
</g>
<g>
</g>
<g>
</g>
<g>
</g>
<g>
</g>
<g>
</g>
<g>
</g>
<g>
</g>
<g>
</g>
<g>
</g>
<g>
</g>
</svg>
